<svg width="35" height="49" viewBox="0 0 35 49" fill="none" xmlns="http://www.w3.org/2000/svg">
<path d="M28.7431 19.3329C27.892 17.4847 25.9223 16.3418 23.8796 16.5364C22.7367 14.0803 19.6241 12.8645 17.0221 14.3721L14.5904 15.7825V0.341034L0 8.75483V16.05L2.91808 14.3721V40.1971C2.91808 41.9237 3.84214 43.5286 5.34981 44.404L12.1587 48.3434C12.9125 48.7811 13.7393 49 14.5904 49C15.4415 49 16.2683 48.7811 17.0221 48.3434L31.6125 39.9053C33.1202 39.0299 34.0443 37.425 34.0443 35.6984V24.172C34.0443 21.181 31.4423 19.0897 28.7431 19.3329ZM24.3173 18.9438C25.1684 18.9438 25.9952 19.4058 26.4329 20.1597C26.0195 20.4028 25.2657 20.8405 24.3173 21.3755V18.9438ZM14.5904 18.579L18.238 16.4634C19.4782 15.7582 20.9129 16.2446 21.5695 17.3632L14.5904 21.3755V18.579ZM14.5904 24.1963L21.8856 19.9894V22.7859C18.5298 24.7313 14.6877 26.9685 14.5904 27.0415V24.1963ZM14.5904 31.1997C14.5904 30.3243 15.0524 29.5218 15.8063 29.0841L21.8856 25.5824V30.0811C21.8856 30.9565 21.4236 31.759 20.6697 32.1967L14.5904 35.6984V31.1997ZM14.5904 38.4949L21.8856 34.288C23.3933 33.4126 24.3173 31.8077 24.3173 30.0811V24.172L26.7491 22.7616V32.8776C26.7491 33.753 26.287 34.5555 25.5332 34.9932L14.5904 41.3157V38.4949ZM31.6125 35.6741C31.6125 36.5495 31.1505 37.352 30.3967 37.7897L16.779 45.6442C15.8063 46.2035 14.5904 45.4983 14.5904 44.3797V44.1122L26.7491 37.0845C28.2567 36.2091 29.1808 34.6041 29.1808 32.8776V21.7403C30.4453 21.7403 31.6125 22.7616 31.6125 24.172V35.6741Z" fill="#E08568"/>
</svg>
